<?xml version="1.0" encoding="UTF-8"?>
<svg id="Camada_1" data-name="Camada 1" xmlns="http://www.w3.org/2000/svg" viewBox="0 0 230 230">
  <defs>
    <style>
      .cls-1 {
        fill: #a34428;
      }

      .cls-2 {
        fill: #366748;
      }

      .cls-3 {
        fill: #9f824a;
      }

      .cls-4 {
        fill: #f4e4cd;
      }

      .cls-5 {
        fill: none;
        stroke: #366748;
        stroke-miterlimit: 10;
        stroke-width: 5px;
      }
    </style>
  </defs>
  <path class="cls-4" d="M142.36,146.22h61.26v19.69c0,3.44-2.79,6.23-6.23,6.23h-55.03v-25.92h0Z"/>
  <circle class="cls-5" cx="115" cy="112.66" r="104.17"/>
  <path class="cls-1" d="M140.32,146.22l-.09-5.14,7.25-.26.6-31.23h-4.21s.09-4.53.09-4.53c3.26-.08,4.86.11,7.14-.05-1.32-12.11,7.13-25.9,19.74-27.92l.07-8.35c-4.74-.12-4.61.34-4.68-1.99v-1.61c.02-.3.27-.54.57-.53l4.16.13v-6.12s3.95,0,3.95,0l-.13,5.93c4.77.31,5.1-.76,5.02,2.2-.06,2.32.84,2.07-4.68,1.99l.07,8.35c12.76,2.08,20.1,15.65,19.79,27.89,6.43.08,3.55.13,6.43.08l.15,4.53h-3.6v31.24h7.81s0,5.41,0,5.41h-65.44ZM194.34,109.58h-42.66v31.83h42.66v-31.83Z"/>
  <path class="cls-1" d="M178.52,124.3s0-5.18-5.53-5.18-5.53,5.18-5.53,5.18v13.57h11.05v-13.57Z"/>
  <path class="cls-1" d="M181.24,162.4c0-.85-.23-1.68-.68-2.4-1.12-1.78-3.64-4.87-7.57-4.87s-6.45,3.09-7.57,4.87c-.45.72-.68,1.55-.68,2.4v9.66h16.51v-9.66Z"/>
  <path class="cls-3" d="M111.1,134.57l1.83-59.49c-.79-1.17-5.37.17-6.67.6-8.66,2.85-15.41,10.81-20.4,18.04-1.82.08-.55-10.07-.14-11.54,2.62-9.39,12.93-14.65,22.07-15.17-7.65-3.74-18.13-2.17-25.96.47-2.97,1-5.3,2.88-8.28,3.43,6.16-13.75,22.66-17.76,35.15-9.61.78-1.35-2.2-4.65-3.28-5.73-5.85-5.79-14.61-8.23-22.54-9.31-.86-.12-1.77.56-1.51-.87,11.92-8.07,25.24-4,31.95,8.29.27.5,1.77,5.97,2.89,4.61,2.01-12.71,14.64-19.37,26.93-16.41.87.21,7.56,3.18,6.12,4.39-11.14.16-22.36,5.48-28.24,15.01,4.23-1.61,8.29-3.84,12.93-4.19,9.56-.72,18.72,4.4,22.52,13.2-10.39-4.35-22.68-8.1-33.64-3.3,14.45.9,25.33,12.66,22.22,27.32l-4.81-6.89c-5.81-6.6-12.83-11.97-21.87-12.85l-.94,1.43,1.2,58.55h-7.52Z"/>
  <path class="cls-5" d="M51.88,195.52c2.32-.87,19.85-8.73,19.85-8.73,2.74-1.23,5.89-1.17,8.58.17l11.03,5.46c2.86,1.42,6.23,1.39,9.07-.07l10.1-5.2c2.82-1.45,6.16-1.49,9.01-.1l11.07,5.38c2.89,1.41,6.27,1.35,9.11-.16l9.74-5.16c2.72-1.44,5.94-1.56,8.76-.32,0,0,9.32,3.66,18.94,8.72"/>
  <path class="cls-5" d="M69.45,205.56c2.36-1.06,6.89-2.99,10.28-2.93.84.01,1.65.25,2.4.62l10.19,5.05c2.86,1.42,6.23,1.39,9.07-.07l10.1-5.2c2.82-1.45,6.16-1.49,9.01-.1l11.07,5.38c2.89,1.41,6.27,1.35,9.11-.16l9.74-5.16c2.72-1.44,7.17,1.39,9.99,2.62"/>
  <path class="cls-2" d="M23.06,144.26v-26.3s13.18-6.59,17.79-8.29c3.87-1.42,11.83-3.67,15.88-4.4,3.43-.61,13.84-1.68,13.84-1.68l.34-3.02s-4.13-.49-10.81.6c-3.31.54-11.52,2.11-14.74,3.07-2.67.8-7.97,2.5-10.54,3.58-3.03,1.27-11.75,5.94-11.75,5.94v-26.71s11.77-6.68,15.76-8.94c6.14-3.48,19.19-5.49,19.19-5.49,0,0,1.3,9.67,2.5,13.06,1.15,3.26,7.56,13.04,7.56,13.04l4.6.1s-.12,6.61.06,8.57c.6,6.28,6.81,22.23,6.81,22.23h8.39l-.2,4.78,41.34.41v37.38H27.34l-4.28-15.63v-8.65s10.65-3.46,14.26-4.42c3.77-1,11.4-2.69,15.25-3.38,4.32-.78,13.03-1.98,17.4-2.4,4.09-.4,15.62-.92,15.62-.92l.05-3.89s-12.64.4-17.11.82c-4.22.4-12.6,1.64-16.77,2.4s-12.09,2.44-16.03,3.58c-3.23.94-12.67,4.55-12.67,4.55ZM30.61,137.38l7.16-1.76v-12.35s-.44-3.55-4.02-3.14c-2.77.32-3.14,3.33-3.14,3.33v13.92ZM42.22,134.57l9.54-1.87-.08-12.28s0-4.96-4.73-4.53c-3.65.33-4.72,4.08-4.72,4.08v14.6ZM56.73,131.76l10.32-1.32v-13.73s-.87-4.07-5.59-3.64c-3.65.33-4.72,4.08-4.72,4.08v14.6ZM30.26,169.19l7.38-.95-.06-12.35s-.75-3.1-3.62-3.07-3.34,2.78-3.34,2.78l-.36,13.58ZM42.22,167.96l9.48-.75-.02-12.21s-.26-5-4.69-4.98c-3.67.02-4.77,4.16-4.77,4.16v13.78ZM56.73,166.9l10.32-.37v-14.68s-.87-4.07-5.59-3.64c-3.65.33-4.72,4.08-4.72,4.08v14.6ZM74.69,166.9h10.32v-16.47s0-4.19-4.75-4.21c-5.57-.03-5.57,4.1-5.57,4.1v16.57ZM103.67,166.57h10.99v-14.43s-.75-4.28-4.91-4.28c-5.18,0-6.08,4.11-6.08,4.11v14.6ZM37.98,102.46v-5.77c0-.24-.19-.43-.43-.43h-3.49c-.47,0-.86.38-.86.86v5.97c0,.23.21.41.44.38l4.02-.63c.18-.03.32-.19.32-.38Z"/>
</svg>